<?xml version="1.0" standalone="no"?>
<!DOCTYPE svg PUBLIC "-//W3C//DTD SVG 20010904//EN"
 "http://www.w3.org/TR/2001/REC-SVG-20010904/DTD/svg10.dtd">
<svg version="1.0" xmlns="http://www.w3.org/2000/svg"
 width="200.000000pt" height="200.000000pt" viewBox="0 0 200.000000 200.000000"
 preserveAspectRatio="xMidYMid meet">

<g transform="translate(0.000000,200.000000) scale(0.100000,-0.100000)"
fill="#000000" stroke="none">
<path d="M793 1679 c-118 -37 -222 -167 -254 -316 -35 -168 72 -385 225 -457
67 -31 162 -50 230 -44 165 14 337 185 376 375 34 160 -58 349 -203 416 -108
51 -262 62 -374 26z m225 -19 c173 -28 282 -134 313 -304 10 -51 10 -77 1
-117 -30 -127 -121 -258 -213 -305 -27 -13 -51 -24 -54 -24 -3 0 -5 26 -5 58
0 48 7 71 45 147 45 89 79 190 69 207 -9 14 -40 9 -57 -9 -8 -10 -22 -34 -31
-53 -15 -33 -16 -29 -11 105 5 114 3 144 -9 160 -23 31 -39 6 -52 -83 l-11
-77 -7 90 c-10 129 -16 150 -46 150 -25 0 -25 0 -30 -125 l-5 -125 -8 80 c-10
97 -21 128 -45 123 -15 -3 -17 -17 -16 -132 1 -133 -4 -142 -25 -44 -14 63
-26 78 -47 56 -12 -12 -13 -27 -4 -89 6 -41 15 -113 20 -160 6 -68 16 -101 44
-157 20 -39 36 -85 36 -102 l0 -30 -51 20 c-74 28 -125 66 -169 128 -53 73
-84 169 -84 258 0 62 4 81 36 145 87 175 218 241 416 209z m-45 -146 c4 -38
10 -93 13 -121 6 -56 19 -68 34 -30 7 18 9 18 9 4 1 -24 21 -11 21 14 0 10 -4
19 -10 19 -11 0 -13 52 -4 88 4 12 11 22 16 22 7 0 9 -55 7 -152 -4 -141 -3
-153 14 -152 9 1 17 -3 17 -9 0 -7 4 -7 12 1 10 10 10 15 1 20 -15 9 12 78 34
86 25 10 26 1 8 -56 -25 -75 -69 -159 -95 -183 -30 -27 -50 -75 -51 -127 -1
-39 -2 -38 -11 20 -8 50 -13 62 -26 60 -13 -2 -18 -18 -23 -63 -3 -33 -6 -48
-7 -33 -3 45 -21 81 -62 123 -48 49 -59 77 -67 173 -5 60 -4 74 7 67 8 -5 11
-3 8 6 -3 8 -11 13 -17 12 -6 -2 -11 4 -11 13 0 8 5 12 10 9 6 -3 10 0 11 7 0
7 5 -2 10 -20 6 -19 15 -32 22 -29 8 2 14 45 17 133 5 119 10 136 23 77 3 -13
1 -23 -4 -23 -5 0 -9 -9 -9 -20 0 -11 4 -20 9 -20 6 0 13 -20 17 -45 3 -25 11
-48 16 -51 21 -13 29 23 25 103 -3 45 -1 81 3 80 4 -1 8 1 9 6 3 21 0 28 -9
22 -11 -7 -13 6 -4 30 13 33 29 6 37 -61z m-163 -141 c0 -24 -16 -33 -18 -10
-1 6 -4 26 -7 42 -6 29 -6 29 9 11 9 -11 16 -30 16 -43z m98 -407 c9 -34 5
-66 -9 -66 -5 0 -9 11 -9 25 0 14 -7 42 -15 62 -20 46 -19 50 5 28 11 -10 24
-32 28 -49z m134 -1 c-4 -73 -22 -89 -22 -19 0 37 13 84 23 84 1 0 0 -29 -1
-65z m-75 -42 c-2 -16 -4 -3 -4 27 0 30 2 43 4 28 2 -16 2 -40 0 -55z"/>
<path d="M1042 1450 c0 -14 2 -19 5 -12 2 6 2 18 0 25 -3 6 -5 1 -5 -13z"/>
<path d="M950 1444 c0 -8 5 -12 10 -9 6 4 8 11 5 16 -9 14 -15 11 -15 -7z"/>
<path d="M872 1395 c0 -16 2 -22 5 -12 2 9 2 23 0 30 -3 6 -5 -1 -5 -18z"/>
<path d="M950 1370 c0 -19 3 -21 12 -12 9 9 9 15 0 24 -9 9 -12 7 -12 -12z"/>
<path d="M870 1326 c0 -8 5 -18 10 -21 6 -3 10 3 10 14 0 12 -4 21 -10 21 -5
0 -10 -6 -10 -14z"/>
<path d="M950 1330 c0 -5 5 -10 11 -10 5 0 7 5 4 10 -3 6 -8 10 -11 10 -2 0
-4 -4 -4 -10z"/>
<path d="M1120 1271 c-7 -15 -7 -21 0 -21 12 0 25 28 17 36 -3 3 -10 -4 -17
-15z"/>
<path d="M900 1271 c0 -6 5 -13 10 -16 6 -3 10 1 10 9 0 9 -4 16 -10 16 -5 0
-10 -4 -10 -9z"/>
<path d="M960 1270 c0 -5 5 -10 10 -10 6 0 10 5 10 10 0 6 -4 10 -10 10 -5 0
-10 -4 -10 -10z"/>
<path d="M1010 1264 c0 -8 5 -12 10 -9 6 3 10 10 10 16 0 5 -4 9 -10 9 -5 0
-10 -7 -10 -16z"/>
<path d="M866 1262 c-3 -6 -1 -14 5 -17 15 -10 25 3 12 16 -7 7 -13 7 -17 1z"/>
<path d="M910 1243 c-8 -3 -22 -12 -32 -20 -11 -10 -18 -11 -23 -4 -3 6 -12
11 -18 11 -7 0 -5 -6 5 -14 16 -12 16 -14 1 -36 -15 -21 -15 -24 8 -41 50 -38
122 -36 173 4 l29 24 -34 36 c-33 36 -78 53 -109 40z m84 -34 c34 -27 30 -31
-17 -18 -24 6 -49 7 -72 0 -40 -11 -46 -1 -12 22 31 22 70 21 101 -4z m-37
-45 c14 6 15 4 7 -4 -15 -15 -46 -9 -52 10 -5 13 -3 13 11 1 9 -7 25 -10 34
-7z m-53 -9 c25 -19 60 -19 76 0 7 8 16 12 21 9 15 -9 1 -22 -35 -34 -27 -9
-42 -8 -71 4 -20 9 -34 20 -30 26 8 13 16 12 39 -5z"/>
<path d="M1075 1160 c-3 -5 -1 -10 4 -10 6 0 11 5 11 10 0 6 -2 10 -4 10 -3 0
-8 -4 -11 -10z"/>
<path d="M1030 1110 c0 -5 5 -10 10 -10 6 0 10 5 10 10 0 6 -4 10 -10 10 -5 0
-10 -4 -10 -10z"/>
<path d="M850 1099 c0 -5 5 -7 10 -4 6 3 10 8 10 11 0 2 -4 4 -10 4 -5 0 -10
-5 -10 -11z"/>
<path d="M876 1091 c-4 -7 -5 -15 -2 -18 9 -9 19 4 14 18 -4 11 -6 11 -12 0z"/>
<path d="M991 1084 c0 -11 3 -14 6 -6 3 7 2 16 -1 19 -3 4 -6 -2 -5 -13z"/>
<path d="M930 1076 c0 -9 5 -16 10 -16 6 0 10 4 10 9 0 6 -4 13 -10 16 -5 3
-10 -1 -10 -9z"/>
<path d="M964 711 c7 -73 33 -177 42 -168 3 3 -2 42 -10 87 -9 45 -16 95 -16
111 0 15 -5 31 -11 35 -9 5 -10 -12 -5 -65z"/>
<path d="M1217 733 c4 -36 2 -39 -36 -60 -49 -28 -47 -28 -54 -3 -9 34 -46 25
-63 -15 -19 -47 -18 -62 10 -90 19 -19 30 -22 52 -16 15 4 30 13 32 20 3 10 0
11 -16 2 -11 -6 -25 -11 -31 -11 -17 0 -41 31 -41 53 0 19 6 22 38 22 21 0 55
10 79 23 l41 23 13 -55 c6 -31 15 -53 19 -51 5 3 4 22 -1 42 -13 59 -11 71 19
87 31 17 25 21 -11 7 -27 -11 -37 1 -37 40 0 10 -4 19 -9 19 -5 0 -7 -17 -4
-37z m-107 -72 c0 -12 -20 -25 -27 -18 -7 7 6 27 18 27 5 0 9 -4 9 -9z"/>
<path d="M647 723 c-3 -5 -8 -27 -12 -50 -12 -76 44 -150 94 -123 37 19 42 96
11 148 -16 26 -26 32 -54 32 -19 0 -37 -3 -39 -7z m86 -56 c14 -27 16 -44 10
-64 -29 -86 -108 -16 -88 78 6 25 11 30 33 27 20 -2 32 -13 45 -41z"/>
<path d="M905 708 c-2 -7 -6 -33 -8 -58 l-3 -45 -13 32 c-15 39 -31 34 -31 -9
0 -26 -2 -29 -15 -18 -8 7 -15 18 -15 26 0 7 -4 16 -10 19 -17 10 -11 -18 11
-55 19 -30 23 -32 33 -18 12 16 14 16 30 0 15 -15 18 -15 26 -2 5 8 10 43 10
78 0 59 -5 77 -15 50z"/>
</g>
</svg>
